PathFileType	4	(X/Y/Z)	Patient4_TMGait_0pt3_03_right_26.trc.trc
DataRate	CameraRate	NumFrames	NumMarkers	Units	OrigDataRate	OrigDataStartFrame	OrigNumFrames
52.238805970149	52.238805970149	4	33	mm	52.238805970149	71	       141
Frame#	Time	Sacral			L.Shoulder			Chest			R.Shoulder			Neck			R.ASIS			L.ASIS			R.Thigh.Superior			R.Thigh.Lateral			R.Thigh.Inferior			R.Patella			L.Thigh.Superior			L.Thigh.Lateral			L.Thigh.Inferior			L.Patella			L.Shank.Superior			L.Shank.Lateral			L.Shank.Inferior			R.Shank.Superior			R.Shank.Lateral			R.Shank.Inferior			R.Heel			R.Midfoot.Superior			R.Midfoot.Lateral			R.Toe			L.Heel			L.Midfoot.Lateral			L.Midfoot.Superior			L.Toe			L.Elbow			L.Wrist			R.Elbow			R.Wrist			
		X1	Y1	Z1	X2	Y2	Z2	X3	Y3	Z3	X4	Y4	Z4	X5	Y5	Z5	X6	Y6	Z6	X7	Y7	Z7	X8	Y8	Z8	X9	Y9	Z9	X10	Y10	Z10	X11	Y11	Z11	X12	Y12	Z12	X13	Y13	Z13	X14	Y14	Z14	X15	Y15	Z15	X16	Y16	Z16	X17	Y17	Z17	X18	Y18	Z18	X19	Y19	Z19	X20	Y20	Z20	X21	Y21	Z21	X22	Y22	Z22	X23	Y23	Z23	X24	Y24	Z24	X25	Y25	Z25	X26	Y26	Z26	X27	Y27	Z27	X28	Y28	Z28	X29	Y29	Z29	X30	Y30	Z30	X31	Y31	Z31	X32	Y32	Z32	X33	Y33	Z33	

71	49.840000000000	715.981182180756	1006.581788259487	608.777815349320	877.891910986389	1424.281562127310	400.280403489791	1000.173949732966	1354.937002370121	547.246087705670	945.690557473195	1434.738875864375	728.034061642601	880.911335222399	1489.374796300353	558.154865558796	953.343683136209	930.646861840401	697.609065909606	909.379494868481	956.553239948560	426.384698821141	957.899384214336	721.139318663073	659.251017347950	866.501759514405	620.038246170491	725.115443704170	923.885408990416	560.939892321532	636.557695029381	909.601047047961	472.795689488219	639.916301083800	973.524120774660	759.104836352402	446.303021047136	904.793196566528	637.372809064185	371.130299083804	1003.659837545236	570.352258659353	429.427209736836	1023.692654655340	510.065422339813	427.667632238937	1010.684395997439	441.541473212772	414.521451838227	952.220919312685	310.382845797099	357.447471976956	1043.783128855293	213.684880003103	411.124047828756	867.235655575826	389.085020522172	648.179090921316	785.642795156211	295.747849201541	714.707036619049	804.165397943466	198.383555855948	645.738515540767	645.406662157339	44.816994231578	621.624463474655	818.819826928542	96.127865029518	653.638832382195	730.063838661882	37.375250082021	694.108189183544	938.030164927911	41.755546608866	679.817219062786	963.909981092768	36.360932458407	440.743680155878	1042.859306255861	39.804985104359	365.530151281489	1113.875754751808	114.913643150394	391.989330283014	1248.135374459948	82.565765334467	373.861443028918	745.308851354272	1094.854627781603	310.116570262836	735.195678624016	834.341971107652	339.048872085955	1137.256795639198	1167.436304982529	847.101937156843	1370.322087056123	1248.064109924003	783.486478112247	
72	49.859142857143	717.004139135057	1005.635354585939	605.747233526359	877.295949620714	1423.006335471023	395.708982045904	1000.235509023805	1354.246009156346	542.411096255846	946.078026292703	1434.132073588842	723.226661744734	880.785653037203	1488.468080790760	553.565204617801	954.645881665285	930.144027873589	694.328223383180	909.947845280346	955.102681639684	423.183895442619	957.158009550323	719.948269064869	656.986956624278	864.375592298488	619.878999412175	723.298527039263	920.665545826735	559.884485012767	634.994060524618	905.016312073634	472.194423994541	638.446691512379	974.110881257271	757.533174834586	443.343514682928	903.466830154459	635.543356866193	369.819474402670	1002.609536200368	569.041614862161	427.475323195954	1021.286676250917	508.293545737278	426.231678980960	1008.764072487933	439.356107170002	413.152815067339	949.298219684802	308.441992268976	357.331957959357	1040.440246563057	211.724637551248	411.102432300477	862.560513740885	388.683224058106	647.109307448727	780.648300154289	295.888919838131	714.085175212492	798.868260450651	198.249139569708	645.366725613441	639.620076546855	44.809203409238	621.650924143839	813.141294570493	96.147874018805	653.598240877027	724.276574169056	37.352498110762	694.127064392118	932.233263055500	41.785031671093	679.795156066111	959.147724081696	36.324715723851	442.157670804931	1037.171165746814	39.167743143545	365.866261154700	1109.601165420875	112.623719856884	392.220205253136	1243.070120993501	78.067247970677	372.234544562928	746.475709101450	1092.695269757680	306.382395087009	741.128001038484	831.851431589843	335.320543528972	1140.880912529538	1169.840019208200	841.896927840464	1372.356771755625	1254.440467108055	777.947030123512	
73	49.878285714286	718.119964145580	1004.589252237693	602.517858377443	876.818306706181	1421.582148322948	390.845123068521	1000.352394424279	1353.490762399958	537.361853737719	946.439986451797	1433.491773364167	718.182958647765	880.679136549233	1487.500303319828	548.631294617013	956.055556978429	929.600989376683	690.904523038972	910.726118411625	953.677166618944	419.837563167901	956.811970682523	718.748491335585	654.588920188362	862.736384009163	619.611879061000	721.265964058140	918.056381591268	558.806978780247	633.229638601724	901.120927471482	471.465601235353	636.782743276518	975.449122847808	756.492387092713	440.690950748515	903.748126040599	634.140816619410	368.487363942320	1003.083779049419	568.277526387556	425.751574103443	1020.381490788120	506.742308503226	424.914689532625	1008.135811401567	437.250867328357	411.849319786907	947.174288258658	306.891677728634	356.943706142528	1037.178796057678	209.616173075580	411.020125461030	858.385912922320	388.187779776185	645.857739386722	776.023914485450	296.079090929418	713.300080030819	793.808303796609	198.120002382747	644.903544439110	633.882079300283	44.969714851671	621.655083732139	807.534941939558	96.198038442776	653.522781484186	718.533513297556	37.429618129376	694.120483635711	926.468480237612	41.759847526266	679.782020075800	953.397114217302	36.407172151748	443.294160718385	1030.605181405512	38.426834961879	366.002500740820	1104.729024159017	110.000363671366	392.378487170734	1237.328676878866	72.783345431348	370.676003280974	748.483171495339	1090.034776529186	302.329153903143	748.430693933096	828.961913322195	331.000456533713	1143.552570938311	1171.400330129633	836.679967723188	1373.943894569578	1258.848757117342	772.602512165033	
74	49.897428571429	719.292426932666	1003.578687705151	599.116426036934	876.456303078928	1420.119840777430	385.755635369530	1000.536650296306	1352.757529545275	532.144269212231	946.829711831270	1432.923739982985	712.951345363047	880.614449361992	1486.567632337352	543.417535921451	957.507560228347	929.080696954371	687.344597521182	911.672439425897	952.409501532414	416.352329350510	956.732214440183	717.606303957164	652.035556949637	861.487141455454	619.310689850722	719.032066537280	915.964324738347	557.773789405758	631.270359601502	897.842009047291	470.667440603154	634.954294128011	977.421124460434	756.042023466062	438.305678126055	905.487961810886	633.228673569985	367.050129137555	1004.918596640090	568.045071293674	424.165097280717	1020.872518455084	505.488224724304	423.675122265106	1008.707988602088	435.350688980260	410.609508628680	945.970920282743	305.771277664493	356.217993749022	1034.210609652750	207.521026187252	410.887706575679	854.661698367882	387.666478078925	644.452353975636	771.727669380634	296.369188848670	712.362400145564	788.967547229226	198.049288104369	644.361528234303	628.203501307103	45.360927946448	621.637236703808	802.020885391479	96.295372889891	653.419336836668	712.844876378783	37.647056489072	694.086587782277	920.743672637245	41.665353397896	679.777318945441	947.151717778937	36.562085834981	444.095220352365	1023.725892041554	37.649988534960	365.971327427286	1099.617734868146	107.304476508068	392.505236331798	1231.357306294135	67.297679933965	369.394671098407	751.254518736560	1087.043105669958	297.981620301127	756.980592272924	825.875554360195	326.060885281735	1145.381782959028	1172.240271682998	831.481968550771	1375.213991828776	1261.438555541731	767.459535498302	
